{
  "asset": {
    "version": "2.0",
    "generator": "Meridian generate_gltf_block.py"
  },
  "scene": 0,
  "scenes": [
    {
      "nodes": [
        0,
        1,
        2,
        3,
        4,
        5,
        6,
        7,
        8,
        9,
        10,
        11,
        12,
        13,
        14,
        15,
        16,
        17,
        18,
        19
      ]
    }
  ],
  "nodes": [
    {
      "mesh": 0,
      "translation": [
        0.0,
        0.0,
        0.0
      ]
    },
    {
      "mesh": 0,
      "translation": [
        2.5,
        0.0,
        0.0
      ]
    },
    {
      "mesh": 0,
      "translation": [
        5.0,
        0.0,
        0.0
      ]
    },
    {
      "mesh": 0,
      "translation": [
        7.5,
        0.0,
        0.0
      ]
    },
    {
      "mesh": 0,
      "translation": [
        10.0,
        0.0,
        0.0
      ]
    },
    {
      "mesh": 0,
      "translation": [
        0.0,
        0.0,
        2.5
      ]
    },
    {
      "mesh": 0,
      "translation": [
        2.5,
        0.0,
        2.5
      ]
    },
    {
      "mesh": 0,
      "translation": [
        5.0,
        0.0,
        2.5
      ]
    },
    {
      "mesh": 0,
      "translation": [
        7.5,
        0.0,
        2.5
      ]
    },
    {
      "mesh": 0,
      "translation": [
        10.0,
        0.0,
        2.5
      ]
    },
    {
      "mesh": 0,
      "translation": [
        0.0,
        0.0,
        5.0
      ]
    },
    {
      "mesh": 0,
      "translation": [
        2.5,
        0.0,
        5.0
      ]
    },
    {
      "mesh": 0,
      "translation": [
        5.0,
        0.0,
        5.0
      ]
    },
    {
      "mesh": 0,
      "translation": [
        7.5,
        0.0,
        5.0
      ]
    },
    {
      "mesh": 0,
      "translation": [
        10.0,
        0.0,
        5.0
      ]
    },
    {
      "mesh": 0,
      "translation": [
        0.0,
        0.0,
        7.5
      ]
    },
    {
      "mesh": 0,
      "translation": [
        2.5,
        0.0,
        7.5
      ]
    },
    {
      "mesh": 0,
      "translation": [
        5.0,
        0.0,
        7.5
      ]
    },
    {
      "mesh": 0,
      "translation": [
        7.5,
        0.0,
        7.5
      ]
    },
    {
      "mesh": 0,
      "translation": [
        10.0,
        0.0,
        7.5
      ]
    }
  ],
  "materials": [
    {
      "name": "stone_wall"
    },
    {
      "name": "roof_cap"
    }
  ],
  "meshes": [
    {
      "name": "building_block",
      "primitives": [
        {
          "attributes": {
            "POSITION": 0
          },
          "indices": 1,
          "material": 0
        },
        {
          "attributes": {
            "POSITION": 0
          },
          "indices": 2,
          "material": 1
        }
      ]
    }
  ],
  "buffers": [
    {
      "uri": "building_block.bin",
      "byteLength": 216
    }
  ],
  "bufferViews": [
    {
      "buffer": 0,
      "byteOffset": 0,
      "byteLength": 96,
      "target": 34962
    },
    {
      "buffer": 0,
      "byteOffset": 96,
      "byteLength": 96,
      "target": 34963
    },
    {
      "buffer": 0,
      "byteOffset": 192,
      "byteLength": 24,
      "target": 34963
    }
  ],
  "accessors": [
    {
      "bufferView": 0,
      "componentType": 5126,
      "count": 8,
      "type": "VEC3",
      "min": [
        0.0,
        0.0,
        0.0
      ],
      "max": [
        2.0,
        2.5,
        2.0
      ]
    },
    {
      "bufferView": 1,
      "componentType": 5125,
      "count": 24,
      "type": "SCALAR"
    },
    {
      "bufferView": 2,
      "componentType": 5125,
      "count": 6,
      "type": "SCALAR"
    }
  ]
}
