{
  "asset": {
    "version": "2.0",
    "generator": "Meridian generate_sparse_gltf_block.py"
  },
  "scene": 0,
  "scenes": [
    {
      "nodes": [
        0,
        1
      ]
    }
  ],
  "nodes": [
    {
      "mesh": 0,
      "translation": [
        0.0,
        0.0,
        0.0
      ]
    },
    {
      "mesh": 0,
      "translation": [
        3.0,
        0.0,
        0.0
      ]
    }
  ],
  "materials": [
    {},
    {}
  ],
  "meshes": [
    {
      "name": "sparse_building_block",
      "primitives": [
        {
          "attributes": {
            "POSITION": 0
          },
          "indices": 3,
          "material": 0
        },
        {
          "attributes": {
            "POSITION": 0
          },
          "indices": 4,
          "material": 1
        }
      ]
    }
  ],
  "buffers": [
    {
      "uri": "sparse_building_block.bin",
      "byteLength": 244
    }
  ],
  "bufferViews": [
    {
      "buffer": 0,
      "byteOffset": 0,
      "byteLength": 96,
      "target": 34962
    },
    {
      "buffer": 0,
      "byteOffset": 96,
      "byteLength": 4
    },
    {
      "buffer": 0,
      "byteOffset": 100,
      "byteLength": 24
    },
    {
      "buffer": 0,
      "byteOffset": 124,
      "byteLength": 96,
      "target": 34963
    },
    {
      "buffer": 0,
      "byteOffset": 220,
      "byteLength": 24,
      "target": 34963
    }
  ],
  "accessors": [
    {
      "bufferView": 0,
      "componentType": 5126,
      "count": 8,
      "type": "VEC3",
      "min": [
        0.0,
        0.0,
        0.0
      ],
      "max": [
        2.0,
        3.1,
        2.0
      ],
      "sparse": {
        "count": 2,
        "indices": {
          "bufferView": 1,
          "componentType": 5123
        },
        "values": {
          "bufferView": 2
        }
      }
    },
    {
      "bufferView": 1,
      "componentType": 5123,
      "count": 2,
      "type": "SCALAR"
    },
    {
      "bufferView": 2,
      "componentType": 5126,
      "count": 2,
      "type": "VEC3"
    },
    {
      "bufferView": 3,
      "componentType": 5125,
      "count": 24,
      "type": "SCALAR"
    },
    {
      "bufferView": 4,
      "componentType": 5125,
      "count": 6,
      "type": "SCALAR"
    }
  ]
}
